<mxfile host="app.diagrams.net" modified="2024-03-29T15:14:53.636Z" agent="Mozilla/5.0 (X11; Linux x86_64; rv:109.0) Gecko/20100101 Firefox/115.0" etag="AKhzvyH_Vgko7yobqrc9" version="24.2.0" type="github">
  <diagram name="Page-1" id="iviJ_svWnbr33wz3nMhT">
    <mxGraphModel dx="770" dy="601" grid="1" gridSize="10" guides="1" tooltips="1" connect="1" arrows="1" fold="1" page="1" pageScale="1" pageWidth="1100" pageHeight="850" math="1" shadow="0">
      <root>
        <mxCell id="0" />
        <mxCell id="1" parent="0" />
        <mxCell id="BVI4ZznRLpwzYdDOaiCr-1" value="" style="endArrow=none;html=1;rounded=0;" edge="1" parent="1">
          <mxGeometry width="50" height="50" relative="1" as="geometry">
            <mxPoint x="120" y="440" as="sourcePoint" />
            <mxPoint x="400" y="440" as="targetPoint" />
          </mxGeometry>
        </mxCell>
        <mxCell id="BVI4ZznRLpwzYdDOaiCr-2" value="" style="endArrow=none;html=1;rounded=0;" edge="1" parent="1">
          <mxGeometry width="50" height="50" relative="1" as="geometry">
            <mxPoint x="400" y="440" as="sourcePoint" />
            <mxPoint x="400" y="480" as="targetPoint" />
          </mxGeometry>
        </mxCell>
        <mxCell id="BVI4ZznRLpwzYdDOaiCr-3" value="" style="endArrow=none;html=1;rounded=0;" edge="1" parent="1">
          <mxGeometry width="50" height="50" relative="1" as="geometry">
            <mxPoint x="400" y="480" as="sourcePoint" />
            <mxPoint x="680" y="480" as="targetPoint" />
          </mxGeometry>
        </mxCell>
        <mxCell id="BVI4ZznRLpwzYdDOaiCr-4" value="" style="endArrow=none;html=1;rounded=0;" edge="1" parent="1">
          <mxGeometry width="50" height="50" relative="1" as="geometry">
            <mxPoint x="680" y="480" as="sourcePoint" />
            <mxPoint x="680" y="280" as="targetPoint" />
          </mxGeometry>
        </mxCell>
        <mxCell id="BVI4ZznRLpwzYdDOaiCr-5" value="" style="endArrow=none;html=1;rounded=0;" edge="1" parent="1">
          <mxGeometry width="50" height="50" relative="1" as="geometry">
            <mxPoint x="720" y="280" as="sourcePoint" />
            <mxPoint x="680" y="280" as="targetPoint" />
          </mxGeometry>
        </mxCell>
        <mxCell id="BVI4ZznRLpwzYdDOaiCr-6" value="" style="endArrow=none;html=1;rounded=0;" edge="1" parent="1">
          <mxGeometry width="50" height="50" relative="1" as="geometry">
            <mxPoint x="760" y="320" as="sourcePoint" />
            <mxPoint x="720" y="280" as="targetPoint" />
          </mxGeometry>
        </mxCell>
        <mxCell id="BVI4ZznRLpwzYdDOaiCr-7" value="" style="endArrow=none;html=1;rounded=0;" edge="1" parent="1">
          <mxGeometry width="50" height="50" relative="1" as="geometry">
            <mxPoint x="760" y="480" as="sourcePoint" />
            <mxPoint x="760" y="320" as="targetPoint" />
          </mxGeometry>
        </mxCell>
        <mxCell id="BVI4ZznRLpwzYdDOaiCr-8" value="" style="endArrow=none;html=1;rounded=0;" edge="1" parent="1">
          <mxGeometry width="50" height="50" relative="1" as="geometry">
            <mxPoint x="760" y="480" as="sourcePoint" />
            <mxPoint x="1080" y="480" as="targetPoint" />
          </mxGeometry>
        </mxCell>
        <mxCell id="BVI4ZznRLpwzYdDOaiCr-11" value="" style="endArrow=none;html=1;rounded=0;strokeWidth=0.1;" edge="1" parent="1">
          <mxGeometry width="50" height="50" relative="1" as="geometry">
            <mxPoint x="700" y="290" as="sourcePoint" />
            <mxPoint x="700" y="270" as="targetPoint" />
          </mxGeometry>
        </mxCell>
        <mxCell id="BVI4ZznRLpwzYdDOaiCr-12" value="\( p_0 \)" style="text;html=1;align=center;verticalAlign=middle;whiteSpace=wrap;rounded=0;fontSize=8;" vertex="1" parent="1">
          <mxGeometry x="695" y="286" width="10" height="20" as="geometry" />
        </mxCell>
        <mxCell id="BVI4ZznRLpwzYdDOaiCr-13" value="\( p_{-1} \)" style="text;html=1;align=center;verticalAlign=middle;whiteSpace=wrap;rounded=0;fontSize=8;" vertex="1" parent="1">
          <mxGeometry x="660" y="266" width="20" height="20" as="geometry" />
        </mxCell>
        <mxCell id="BVI4ZznRLpwzYdDOaiCr-14" value="" style="endArrow=none;html=1;rounded=0;strokeWidth=0.1;" edge="1" parent="1">
          <mxGeometry width="50" height="50" relative="1" as="geometry">
            <mxPoint x="690" y="360" as="sourcePoint" />
            <mxPoint x="670" y="360" as="targetPoint" />
          </mxGeometry>
        </mxCell>
        <mxCell id="BVI4ZznRLpwzYdDOaiCr-15" value="\( p_{-2} \)" style="text;html=1;align=center;verticalAlign=middle;whiteSpace=wrap;rounded=0;fontSize=8;" vertex="1" parent="1">
          <mxGeometry x="650" y="340" width="20" height="20" as="geometry" />
        </mxCell>
        <mxCell id="BVI4ZznRLpwzYdDOaiCr-16" value="" style="endArrow=classic;startArrow=classic;html=1;rounded=0;strokeWidth=0.2;endSize=2;startSize=2;" edge="1" parent="1">
          <mxGeometry width="50" height="50" relative="1" as="geometry">
            <mxPoint x="390" y="430" as="sourcePoint" />
            <mxPoint x="400" y="430" as="targetPoint" />
          </mxGeometry>
        </mxCell>
        <mxCell id="BVI4ZznRLpwzYdDOaiCr-17" value="\( l_z^{step} \), \(r_z^{step} \)" style="text;html=1;align=center;verticalAlign=middle;whiteSpace=wrap;rounded=0;fontSize=8;" vertex="1" parent="1">
          <mxGeometry x="360" y="405" width="70" height="20" as="geometry" />
        </mxCell>
      </root>
    </mxGraphModel>
  </diagram>
</mxfile>
